<?xml version="1.0" encoding="UTF-8"?>
<svg id="Layer_2" data-name="Layer 2" xmlns="http://www.w3.org/2000/svg" xmlns:xlink="http://www.w3.org/1999/xlink" viewBox="0 0 103.53 49.83">
  <defs>
    <style>
      .cls-1 {
        fill: url(#linear-gradient);
      }

      .cls-1, .cls-2, .cls-3, .cls-4, .cls-5, .cls-6, .cls-7 {
        stroke-width: 0px;
      }

      .cls-2 {
        fill: url(#linear-gradient-4);
      }

      .cls-3 {
        fill: url(#linear-gradient-2);
      }

      .cls-4 {
        fill: url(#linear-gradient-3);
      }

      .cls-5 {
        fill: url(#linear-gradient-7);
      }

      .cls-6 {
        fill: url(#linear-gradient-5);
      }

      .cls-7 {
        fill: url(#linear-gradient-6);
      }
    </style>
    <linearGradient id="linear-gradient" x1="102.63" y1="41.14" x2="55.41" y2="41.14" gradientUnits="userSpaceOnUse">
      <stop offset="0" stop-color="#194276"/>
      <stop offset=".76" stop-color="#1871b0"/>
    </linearGradient>
    <linearGradient id="linear-gradient-2" x1="102.63" y1="41.14" x2="55.41" y2="41.14" xlink:href="#linear-gradient"/>
    <linearGradient id="linear-gradient-3" x1="102.63" y1="41.14" x2="55.41" y2="41.14" xlink:href="#linear-gradient"/>
    <linearGradient id="linear-gradient-4" x1="102.63" y1="41.14" x2="55.41" y2="41.14" xlink:href="#linear-gradient"/>
    <linearGradient id="linear-gradient-5" x1="102.63" y1="20.44" x2="55.41" y2="20.44" xlink:href="#linear-gradient"/>
    <linearGradient id="linear-gradient-6" x1="102.63" y1="21.63" x2="55.41" y2="21.63" xlink:href="#linear-gradient"/>
    <linearGradient id="linear-gradient-7" x1="102.63" y1="17.76" x2="55.41" y2="17.76" xlink:href="#linear-gradient"/>
  </defs>
  <g id="Layer_1-2" data-name="Layer 1">
    <g>
      <path class="cls-1" d="M40.6,32.44c-2.68,0-5.07,1.22-6.67,3.13-1.26,1.51-2.03,3.46-2.03,5.57,0,4.8,3.91,8.69,8.7,8.69s8.7-3.89,8.7-8.69-3.89-8.7-8.7-8.7ZM40.6,45.58c-2.45,0-4.45-2-4.45-4.45s2-4.45,4.45-4.45,4.45,2,4.45,4.45-2,4.45-4.45,4.45Z"/>
      <path class="cls-3" d="M68.83,39.01c-.93-3.77-4.35-6.57-8.41-6.57-4.79,0-8.69,3.91-8.69,8.7s3.91,8.69,8.69,8.69c4.06,0,7.49-2.8,8.41-6.57.2-.68.28-1.39.28-2.12s-.1-1.44-.28-2.12ZM60.42,45.58c-2.45,0-4.45-2-4.45-4.45s2-4.45,4.45-4.45,4.45,2,4.45,4.45-2,4.45-4.45,4.45Z"/>
      <path class="cls-4" d="M95.55,39.01c-.93-3.77-4.36-6.57-8.41-6.57s-7.48,2.8-8.41,6.57c-.18.68-.28,1.39-.28,2.12s.08,1.44.28,2.12c.92,3.77,4.35,6.57,8.41,6.57s7.48-2.8,8.41-6.57c.2-.68.28-1.39.28-2.12s-.1-1.44-.28-2.12ZM87.14,45.58c-2.45,0-4.45-2-4.45-4.45s2-4.45,4.45-4.45,4.45,2,4.45,4.45-2,4.45-4.45,4.45Z"/>
      <rect class="cls-2" x="66.1" y="39.02" width="16.26" height="4.25"/>
      <polygon class="cls-6" points="96.76 26.22 84.72 26.22 84.72 14.67 89.66 14.67 96.76 26.22"/>
      <path class="cls-7" d="M102.57,20.15l-6.3-10.24c-1.18-1.91-3.26-3.08-5.51-3.08h-9.88c-1.45-3.98-5.27-6.83-9.75-6.83H30.8c-.86,0-1.63.51-1.96,1.3l-1.19,2.83c-.02.05.02.11.08.11h14.72s-1.18,2.81-1.18,2.81c-.48,1.14.36,2.4,1.59,2.4h18.39c.7,0,1.32-.42,1.59-1.06l1.75-4.15h6.54c3.33,0,6.06,2.69,6.12,6.01v15.75H22.77s-19.61,0-19.61,0c-.86,0-1.63.51-1.96,1.3L0,30.15c-.02.05.02.11.08.11h9.73s-1.22,2.91-1.22,2.91c-.48,1.14.36,2.4,1.6,2.4h19.23c.7,0,1.32-.42,1.59-1.06l1.79-4.25h48.7V11.08h9.25c.77,0,1.49.4,1.89,1.06l6.3,10.24c.22.35.33.75.33,1.16v13.25c0,1.23-.99,2.22-2.22,2.22h-4.91v4.25h4.91c3.57,0,6.47-2.9,6.47-6.47v-13.25c0-1.2-.33-2.37-.96-3.39Z"/>
      <path class="cls-5" d="M27.87,20.12c-.48,1.14.36,2.4,1.6,2.4h19.23c.7,0,1.33-.42,1.6-1.06l1.76-4.21h.04l1.78-4.25H16.75c-.85,0-1.62.51-1.96,1.3l-1.2,2.84c-.02.05.02.11.07.11h15.41s-1.2,2.87-1.2,2.87Z"/>
    </g>
  </g>
</svg>